# xmcd
#
# Track frame offsets:
#	182
#	17162
#	30287
#	43957
#	61292
#	76817
#	89310
#	101367
#	115062
#	128872
#	147815
#	162957
#	174120
#	186367
#	200372
#	215010
#
# Disc length: 3120 seconds
#
# Revision: 0
# Processed by: cddbd v1.5.1PL0 Copyright (c) Steve Scherf et al.
# Submitted via: dBpowerAMP V4.0
#
DISCID=cf0c2e10
DTITLE=Various Artist - Magique flute de pan
DYEAR=1900
DGENRE=
TTITLE0=01 - Theme de david
TTITLE1=02 - Concerto pour une voix
TTITLE2=03 - Il etait une fois dans l'ouest
TTITLE3=04 - Feelings
TTITLE4=05 - Don't cry for me argentina
TTITLE5=06 - Le parrain
TTITLE6=07 - Je n'aurai pa le temps
TTITLE7=08 - Wings
TTITLE8=09 - Mahogany
TTITLE9=10 - Bright Eyes
TTITLE10=11 - Cavatina
TTITLE11=12 - Concierto d'aranjuez
TTITLE12=13 - L'hiver
TTITLE13=14 - Fantaisie
TTITLE14=15 - L'horizon
TTITLE15=16 - Les Naiades
EXTD=
EXTT0=
EXTT1=
EXTT2=
EXTT3=
EXTT4=
EXTT5=
EXTT6=
EXTT7=
EXTT8=
EXTT9=
EXTT10=
EXTT11=
EXTT12=
EXTT13=
EXTT14=
EXTT15=
PLAYORDER=
